<?xml version="1.0" encoding="utf-8"?>
<!-- Generator: Adobe Illustrator 27.5.0, SVG Export Plug-In . SVG Version: 6.00 Build 0)  -->
<svg version="1.1" id="Layer_1" xmlns="http://www.w3.org/2000/svg" xmlns:xlink="http://www.w3.org/1999/xlink" x="0px" y="0px"
	 viewBox="0 0 600 301.5" style="enable-background:new 0 0 600 301.5;" xml:space="preserve">
<style type="text/css">
	.st0{fill:#FFFFFF;}
	.st1{clip-path:url(#SVGID_00000098930544550929558750000006707578827826897827_);}
	.st2{enable-background:new    ;}
	.st3{opacity:0.5;fill:#FFFFFF;enable-background:new    ;}
	.st4{clip-path:url(#SVGID_00000123442162002177384930000011213750248417554333_);enable-background:new    ;}
	.st5{clip-path:url(#SVGID_00000085929849337238859560000013922120407279386547_);fill:#5C41BF;}
</style>
<rect y="0.8" class="st0" width="600" height="300"/>
<g>
	<g>
		<g>
			<defs>
				<rect id="SVGID_1_" x="0.5" y="150.8" width="600" height="150"/>
			</defs>
			<clipPath id="SVGID_00000115511683099175262240000005610310101099795081_">
				<use xlink:href="#SVGID_1_"  style="overflow:visible;"/>
			</clipPath>
			<g style="clip-path:url(#SVGID_00000115511683099175262240000005610310101099795081_);">
				<g class="st2">
				</g>
			</g>
		</g>
	</g>
</g>
<rect y="149.7" class="st3" width="600" height="150.3"/>
<g>
	<g>
		<g>
			<defs>
				<rect id="SVGID_00000078012714087201187200000014846037029772759726_" y="0.8" width="600" height="150"/>
			</defs>
			<clipPath id="SVGID_00000159449153671537149910000017545127532981713071_">
				<use xlink:href="#SVGID_00000078012714087201187200000014846037029772759726_"  style="overflow:visible;"/>
			</clipPath>
			<g style="clip-path:url(#SVGID_00000159449153671537149910000017545127532981713071_);enable-background:new    ;">
				<path d="M205.7,138.2h-4.8c-0.3-1.4-0.8-2.6-1.5-3.7s-1.6-1.9-2.6-2.7c-1-0.7-2.1-1.3-3.3-1.6s-2.5-0.5-3.8-0.5
					c-2.4,0-4.6,0.6-6.6,1.8s-3.5,3-4.7,5.4s-1.7,5.3-1.7,8.8s0.6,6.4,1.7,8.8c1.2,2.4,2.7,4.2,4.7,5.4s4.1,1.8,6.6,1.8
					c1.3,0,2.6-0.2,3.8-0.5s2.3-0.9,3.3-1.6c1-0.7,1.9-1.6,2.6-2.7c0.7-1.1,1.2-2.3,1.5-3.7h4.8c-0.4,2-1,3.9-2,5.5s-2.2,3-3.6,4.1
					c-1.4,1.1-3,2-4.8,2.6s-3.7,0.9-5.7,0.9c-3.4,0-6.4-0.8-9.1-2.5c-2.7-1.7-4.7-4-6.3-7.1c-1.5-3.1-2.3-6.7-2.3-10.9
					s0.8-7.9,2.3-10.9c1.5-3.1,3.6-5.4,6.3-7.1c2.7-1.7,5.7-2.5,9.1-2.5c2,0,3.9,0.3,5.7,0.9s3.4,1.4,4.8,2.6
					c1.4,1.1,2.6,2.5,3.6,4.1C204.7,134.3,205.4,136.2,205.7,138.2z"/>
				<path d="M212.9,165.7v-30h4.4v4.5h0.3c0.5-1.5,1.5-2.7,3-3.6c1.4-0.9,3-1.4,4.8-1.4c0.3,0,0.8,0,1.3,0s0.9,0,1.2,0.1v4.7
					c-0.2,0-0.5-0.1-1.1-0.2c-0.6-0.1-1.1-0.1-1.7-0.1c-1.5,0-2.8,0.3-3.9,0.9c-1.1,0.6-2,1.4-2.7,2.5s-1,2.3-1,3.6v19H212.9z"/>
				<path d="M235.7,130.7c-0.9,0-1.7-0.3-2.3-0.9c-0.6-0.6-1-1.3-1-2.2s0.3-1.6,1-2.2s1.4-0.9,2.3-0.9s1.7,0.3,2.3,0.9s1,1.3,1,2.2
					s-0.3,1.6-1,2.2C237.4,130.4,236.6,130.7,235.7,130.7z M233.4,165.7v-30h4.6v30H233.4z"/>
				<path d="M259.4,135.7v3.9h-15.5v-3.9H259.4z M248.4,128.5h4.6v28.6c0,1.3,0.2,2.3,0.6,2.9c0.4,0.6,0.9,1.1,1.5,1.3
					s1.2,0.3,1.9,0.3c0.5,0,0.9,0,1.2-0.1c0.3-0.1,0.6-0.1,0.8-0.1l0.9,4.1c-0.3,0.1-0.7,0.2-1.3,0.4c-0.6,0.1-1.3,0.2-2.1,0.2
					c-1.3,0-2.6-0.3-3.8-0.8c-1.2-0.6-2.3-1.4-3.1-2.6s-1.2-2.6-1.2-4.3V128.5z"/>
				<path d="M268.7,130.7c-0.9,0-1.7-0.3-2.3-0.9c-0.6-0.6-1-1.3-1-2.2s0.3-1.6,1-2.2s1.4-0.9,2.3-0.9s1.7,0.3,2.3,0.9s1,1.3,1,2.2
					s-0.3,1.6-1,2.2C270.4,130.4,269.6,130.7,268.7,130.7z M266.4,165.7v-30h4.6v30H266.4z"/>
				<path d="M291.6,166.3c-2.8,0-5.2-0.7-7.3-2c-2-1.3-3.6-3.2-4.7-5.5s-1.6-5-1.6-8s0.6-5.7,1.7-8.1c1.1-2.3,2.7-4.2,4.7-5.5
					s4.4-2,7.1-2c2.1,0,4,0.4,5.7,1.2s3.1,1.9,4.2,3.3c1.1,1.4,1.7,3,2,4.9h-4.6c-0.4-1.4-1.1-2.6-2.3-3.6c-1.2-1.1-2.8-1.6-4.8-1.6
					c-1.8,0-3.4,0.5-4.7,1.4c-1.3,0.9-2.4,2.2-3.1,3.9s-1.1,3.7-1.1,5.9c0,2.3,0.4,4.3,1.1,6s1.8,3,3.1,4c1.3,1,2.9,1.4,4.8,1.4
					c1.2,0,2.3-0.2,3.3-0.6c1-0.4,1.8-1,2.5-1.8s1.2-1.7,1.4-2.8h4.6c-0.3,1.8-0.9,3.4-1.9,4.8c-1,1.4-2.4,2.5-4,3.4
					C295.7,165.9,293.8,166.3,291.6,166.3z"/>
				<path d="M318.9,166.4c-1.9,0-3.6-0.4-5.2-1.1c-1.5-0.7-2.8-1.8-3.7-3.1c-0.9-1.4-1.4-3-1.4-5c0-1.7,0.3-3.1,1-4.2
					c0.7-1.1,1.6-1.9,2.7-2.5s2.4-1.1,3.8-1.4s2.8-0.5,4.1-0.7c1.8-0.2,3.3-0.4,4.4-0.5s2-0.3,2.5-0.6s0.8-0.8,0.8-1.6v-0.2
					c0-1.9-0.5-3.4-1.6-4.5c-1-1.1-2.6-1.6-4.8-1.6c-2.2,0-3.9,0.5-5.2,1.4c-1.2,1-2.1,2-2.6,3.1l-4.4-1.6c0.8-1.8,1.8-3.2,3.1-4.3
					c1.3-1,2.7-1.7,4.3-2.1c1.6-0.4,3.1-0.6,4.6-0.6c1,0,2.1,0.1,3.3,0.3c1.3,0.2,2.5,0.7,3.6,1.4c1.2,0.7,2.2,1.8,2.9,3.2
					c0.8,1.4,1.2,3.3,1.2,5.7v19.7H328v-4.1h-0.2c-0.3,0.7-0.8,1.3-1.6,2.1s-1.7,1.4-2.9,1.9C322.1,166.1,320.6,166.4,318.9,166.4z
					 M319.6,162.3c1.8,0,3.4-0.4,4.6-1.1c1.3-0.7,2.2-1.6,2.8-2.8c0.6-1.1,1-2.3,1-3.6v-4.2c-0.2,0.2-0.6,0.4-1.3,0.6
					c-0.7,0.2-1.4,0.4-2.3,0.5s-1.7,0.3-2.5,0.4c-0.8,0.1-1.4,0.2-1.9,0.2c-1.2,0.2-2.3,0.4-3.3,0.8c-1,0.3-1.9,0.9-2.5,1.5
					s-0.9,1.6-0.9,2.8c0,1.6,0.6,2.8,1.8,3.6C316.3,161.9,317.8,162.3,319.6,162.3z"/>
				<path d="M345.7,125.7v40h-4.6v-40H345.7z"/>
				<path d="M356.4,125.7l11.9,33.6h0.5l11.9-33.6h5.1l-14.7,40h-5l-14.7-40L356.4,125.7L356.4,125.7z"/>
				<path d="M393.6,130.7c-0.9,0-1.7-0.3-2.3-0.9c-0.6-0.6-1-1.3-1-2.2s0.3-1.6,1-2.2c0.6-0.6,1.4-0.9,2.3-0.9s1.7,0.3,2.3,0.9
					c0.6,0.6,1,1.3,1,2.2s-0.3,1.6-1,2.2C395.3,130.4,394.5,130.7,393.6,130.7z M391.3,165.7v-30h4.6v30H391.3z"/>
				<path d="M416.8,166.3c-2.9,0-5.4-0.6-7.5-1.9c-2.1-1.3-3.7-3.1-4.8-5.4c-1.1-2.3-1.7-5-1.7-8.1s0.6-5.8,1.7-8.1s2.7-4.2,4.7-5.5
					s4.4-2,7.1-2c1.6,0,3.1,0.3,4.6,0.8s2.9,1.4,4.2,2.5s2.2,2.7,3,4.6s1.1,4.3,1.1,7.1v2h-23.1v-4h18.4c0-1.7-0.3-3.2-1-4.5
					s-1.6-2.4-2.8-3.1c-1.2-0.8-2.7-1.2-4.3-1.2c-1.8,0-3.4,0.5-4.8,1.4c-1.3,0.9-2.4,2.1-3.1,3.5s-1.1,3-1.1,4.6v2.7
					c0,2.3,0.4,4.2,1.2,5.7c0.8,1.6,1.9,2.8,3.3,3.6s3,1.2,4.9,1.2c1.2,0,2.3-0.2,3.3-0.5s1.8-0.9,2.5-1.6c0.7-0.7,1.3-1.6,1.7-2.6
					l4.4,1.2c-0.5,1.5-1.3,2.8-2.4,4c-1.1,1.1-2.5,2-4.1,2.7S418.9,166.3,416.8,166.3z"/>
				<path d="M443.1,165.7l-9.1-30h4.8l6.5,22.9h0.3l6.4-22.9h4.9l6.3,22.9h0.3l6.5-22.9h4.8l-9.1,30h-4.5l-6.6-23h-0.5l-6.6,23
					H443.1z"/>
				<path d="M494.9,166.2c-3,0-5.7-0.5-8.1-1.6c-2.3-1-4.2-2.5-5.6-4.3s-2-4-2.1-6.4h9.7c0,0.9,0.3,1.6,0.8,2.3s1.2,1.2,2.1,1.6
					c0.9,0.4,1.9,0.6,3.1,0.6s2.2-0.2,3-0.6c0.9-0.4,1.6-1,2.1-1.7s0.7-1.6,0.7-2.5s-0.3-1.8-0.8-2.5s-1.3-1.3-2.3-1.7
					s-2.2-0.6-3.5-0.6h-3.9v-6.9h3.9c1.2,0,2.2-0.2,3.1-0.6s1.6-0.9,2.1-1.6c0.5-0.7,0.8-1.5,0.7-2.4c0-0.9-0.2-1.7-0.6-2.4
					s-1-1.2-1.8-1.6c-0.8-0.4-1.7-0.6-2.7-0.6c-1.1,0-2,0.2-2.9,0.6c-0.9,0.4-1.6,0.9-2.1,1.6c-0.5,0.7-0.8,1.5-0.8,2.4h-9.2
					c0-2.4,0.7-4.5,2-6.3s3.1-3.2,5.3-4.3s4.8-1.5,7.7-1.5c2.9,0,5.4,0.5,7.6,1.5s3.9,2.4,5.1,4.1c1.2,1.7,1.8,3.7,1.8,5.8
					c0,2.3-0.7,4.1-2.2,5.6s-3.4,2.4-5.7,2.7v0.3c3.1,0.4,5.4,1.4,7,3s2.4,3.7,2.4,6.1c0,2.3-0.7,4.4-2,6.2
					c-1.4,1.8-3.2,3.2-5.7,4.2C500.7,165.7,498,166.2,494.9,166.2z"/>
				<path d="M532.3,166.2c-2.2,0-4.3-0.4-6.3-1.1c-2-0.7-3.8-1.8-5.3-3.4c-1.6-1.6-2.8-3.6-3.7-6.1s-1.3-5.6-1.3-9.3
					c0-3.3,0.4-6.2,1.2-8.9c0.8-2.6,1.9-4.8,3.4-6.7c1.5-1.8,3.2-3.2,5.3-4.2s4.4-1.5,6.9-1.5c2.8,0,5.3,0.5,7.4,1.6
					s3.9,2.5,5.1,4.4c1.3,1.8,2,3.9,2.3,6.1h-9.5c-0.3-1.3-0.9-2.2-1.9-2.9s-2.1-1-3.4-1c-2.4,0-4.3,1.1-5.5,3.2
					c-1.2,2.1-1.8,5-1.8,8.5h0.3c0.5-1.2,1.3-2.2,2.4-3.1c1-0.9,2.2-1.5,3.5-2s2.7-0.7,4.2-0.7c2.4,0,4.5,0.6,6.3,1.7
					c1.8,1.1,3.3,2.6,4.3,4.5s1.6,4.1,1.5,6.6c0,2.8-0.6,5.2-2,7.4c-1.3,2.1-3.1,3.8-5.5,5C538.1,165.6,535.4,166.2,532.3,166.2z
					 M532.3,158.8c1.2,0,2.2-0.3,3.2-0.8c0.9-0.6,1.7-1.3,2.2-2.3s0.8-2,0.8-3.3c0-1.2-0.2-2.3-0.8-3.3c-0.5-0.9-1.3-1.7-2.2-2.3
					s-2-0.8-3.2-0.8c-0.9,0-1.7,0.2-2.4,0.5c-0.8,0.3-1.4,0.8-2,1.4c-0.6,0.6-1,1.3-1.3,2s-0.5,1.6-0.5,2.5c0,1.2,0.3,2.3,0.8,3.2
					c0.5,1,1.3,1.7,2.2,2.3C530,158.5,531.1,158.8,532.3,158.8z"/>
				<path d="M569.8,166.7c-3.5,0-6.5-0.8-9-2.5s-4.5-4-5.8-7.2c-1.4-3.1-2-6.9-2-11.2c0-4.4,0.7-8.1,2.1-11.2c1.4-3.1,3.3-5.4,5.8-7
					s5.5-2.4,9-2.4s6.5,0.8,9,2.4c2.5,1.6,4.5,3.9,5.8,7c1.4,3.1,2,6.8,2,11.2s-0.7,8.2-2,11.3c-1.4,3.1-3.3,5.5-5.8,7.2
					C576.3,165.8,573.3,166.7,569.8,166.7z M569.8,158.8c2.1,0,3.8-1.1,5.1-3.2s1.9-5.4,1.9-9.8c0-2.9-0.3-5.3-0.9-7.2
					s-1.4-3.3-2.4-4.2s-2.3-1.4-3.6-1.4c-2.1,0-3.7,1-5,3.1s-1.9,5.3-1.9,9.6c0,2.9,0.3,5.4,0.8,7.3c0.6,1.9,1.4,3.4,2.4,4.3
					S568.4,158.8,569.8,158.8z"/>
			</g>
		</g>
		<g>
			<defs>
				<rect id="SVGID_00000169550000903306410320000001004610908158262919_" y="0.8" width="600" height="150"/>
			</defs>
			<clipPath id="SVGID_00000153670822629982606990000001611284777397696648_">
				<use xlink:href="#SVGID_00000169550000903306410320000001004610908158262919_"  style="overflow:visible;"/>
			</clipPath>
			
				<circle style="clip-path:url(#SVGID_00000153670822629982606990000001611284777397696648_);fill:#5C41BF;" cx="100" cy="150.8" r="40"/>
		</g>
	</g>
</g>
</svg>
